<?xml version="1.0" encoding="UTF-8" standalone="no"?>
<!-- Generator: Adobe Illustrator 19.0.0, SVG Export Plug-In . SVG Version: 6.00 Build 0)  -->
<svg id="Layer_1" xmlns="http://www.w3.org/2000/svg" xml:space="preserve" viewBox="125 358.9 440.2 123" version="1.0" y="0px" x="0px" xmlns:xlink="http://www.w3.org/1999/xlink" enable-background="new 125 358.9 440.2 123">
<path d="m129.4 367.4h38.4c0.2 0 0.2 1.1 0 1.1h-7.9s-2.2-0.1-1.6 1.1c0.1 0.3 27.1 74 27.1 74s0.5 1.3 0.8 1.4l24-74.1c0.2-0.7 1.1-2.4-0.4-2.4h-8.7c-0.2 0-0.2-1.1 0-1.1h20.6c0.2 0 0.2 1.1 0 1.1h-7.7c-2.1 0-2.1 0.6-2.5 1.7-0.2 0.5-33.4 104-33.4 104l-0.3-0.8c-14-40.6-35.8-97.1-37.5-103.1-0.5-1.8-0.8-1.7-1.8-1.7h-9.2c-0.2 0-0.1-1.2 0.1-1.2zm99.9 52.1c0-29.6 5.7-53.8 26.7-53.8 22.6 0 27 25.2 27 53.8 0 29.6-4.3 55.1-26.8 55.1-24.2 0-26.9-24-26.9-55.1zm26.4 56c22.4 0.1 46.6-24.7 46.7-55.4 0.1-32.1-23.2-55-46.3-55.2-23.6-0.2-46.3 25.7-46.3 55.2 0 30.5 21.4 55.3 45.9 55.4zm110.1-45.7h8.8s1.6-0.2 1.6 0.6v25.1c0 19.3-19.2 19.5-24.6 18.9-20.1-2.3-20.5-43.8-20.6-54.6-0.3-29.6 4.4-55.4 24.6-54.4 24 1.2 30.3 35.6 30.7 37.2 0.8 0.3 0.8-0.4 0.8-0.4v-37.5s-0.2-0.3-0.6 0.1l-0.6 0.6c-10.6 10.9-15.9-0.5-31.4-1-19-0.6-42.6 25.7-42.9 56.2-0.3 30.6 19.8 54.2 41.8 55 11.9 0.5 11.7-2.9 26.3-7.4 9-2.8 13.2 3.3 13.6 5.8 0.6 0.4 0.6-0.3 0.6-0.3v-43c0-0.9 1.2-0.7 1.2-0.7h8.1s0.2-1.2 0-1.2h-37.3c-0.4-0.1-0.4 1-0.1 1zm196.9-62.4v38.5c0 0.2-0.8 0.2-0.8 0s0.7-37.5-33.8-37.5h-13c-0.7 0-1.2 0.1-1.2 0.7v48.1c0 0.4 0.5 0.7 1.1 0.7h4.3c20.6 0 18.9-20.6 18.9-20.9s0.8-0.2 0.8 0v43.5s-0.6 0.2-0.6 0-0.5-21.5-19.6-21.5h-3.9c-0.7 0-1.1 0.2-1.1 0.7v51.8c0 0.4 0.4 0.7 1.2 0.7h12.4c37.1 0.1 36.6-39.8 36.6-40s0.9-0.2 0.9 0v41.3h-78.4c-0.2 0-0.2-1.1 0-1.1h7.8c0.7 0 1.1-0.2 1.1-0.7v-102.7c0-0.7-0.9-0.7-1.1-0.7h-17.3s-1.1 0-1.1 0.7v77.7c0 21.7-16.7 28.8-28.7 29-14.1 0.1-39.6-2.3-39.6-33.7 0 0-0.1-71.3-0.1-72.3 0-1.6-2-1.5-2-1.5h-8.3s-0.2-1.1 0-1.1h39.1s0.1 1.1 0 1.1h-8.3s-2.6-0.1-2.6 1.6v82.3c0 12 6.8 22.7 21.6 22.4 11.6-0.2 27.6-7 27.6-27.9v-77.7c0-0.6-1.2-0.7-1.2-0.7h-10.9c-0.2 0-0.2-1.1 0-1.1l100.2 0.3z"/>
	<path d="m234 418.3c0-0.6 0-1.9-0.2-2.4-0.2-0.6-1-0.6-1.5-0.6v-0.4c0.9 0 1.7 0.1 2.6 0.1s1.8-0.1 2.7-0.1v0.4c-0.6 0-1.3 0-1.5 0.6-0.2 0.5-0.2 1.8-0.2 2.4v5c0 0.6 0 1.9 0.2 2.4 0.2 0.6 1 0.6 1.5 0.6v0.4c-0.8 0-1.7-0.1-2.6-0.1s-1.8 0.1-2.7 0.1v-0.4c0.6 0 1.3 0 1.5-0.6 0.2-0.5 0.2-1.8 0.2-2.4v-5zm6.1-1.9c-0.6-0.8-1-1.1-2-1.1v-0.4c0.6 0 1.1 0.1 1.7 0.1 0.5 0 0.9-0.1 1.4-0.1l7.6 9.2v-5c0-0.8 0-2-0.2-2.8-0.2-1-0.7-0.9-1.6-1.1v-0.4c0.7 0 1.3 0.1 2 0.1 0.6 0 1.2-0.1 1.9-0.1v0.4c-0.7 0.1-1.1 0-1.4 0.8-0.2 0.6-0.2 2.4-0.2 3.1v7.7h-0.5l-1.2-1.5-7-8.5v6c0 0.7 0 2 0.3 2.6 0.3 0.7 0.9 0.7 1.6 0.7v0.4c-0.7 0-1.4-0.1-2.1-0.1s-1.3 0.1-2 0.1v-0.4c0.7-0.1 1.4-0.1 1.5-0.9 0.1-0.6 0.1-1.8 0.1-2.5v-6.3h0.1zm13.1 2c0-0.6 0-1.9-0.2-2.4-0.2-0.6-0.9-0.6-1.5-0.6v-0.4c0.7 0 1.5 0.1 2.3 0.1 1 0 1.9-0.1 2.9-0.1 3.8-0.1 6.6 2.3 6.6 6.2 0 3.8-2.5 5.8-6.2 5.7-1.1 0-2.1-0.1-3.2-0.1-0.8 0-1.6 0.1-2.4 0.1v-0.4c0.6 0 1.3 0 1.5-0.6 0.2-0.5 0.2-1.8 0.2-2.4v-5.1zm1.9 5.2c0 0.6-0.1 1.5 0.3 2 0.4 0.6 1.3 0.7 2 0.7 3.1 0 3.7-2.3 3.7-4.9 0-3.5-1-6-4.9-6-0.2 0-0.9 0-1.1 0.1-0.1 0.1-0.1 0.4-0.1 0.6l0.1 7.5z"/>
	<path d="m264.8 418.3c0-0.6 0-1.9-0.2-2.4-0.2-0.6-1-0.6-1.5-0.6v-0.4c0.9 0 1.7 0.1 2.6 0.1s1.8-0.1 2.7-0.1v0.4c-0.6 0-1.3 0-1.5 0.6-0.2 0.5-0.2 1.8-0.2 2.4v5c0 0.6 0 1.9 0.2 2.4 0.2 0.6 1 0.6 1.5 0.6v0.4c-0.8 0-1.7-0.1-2.6-0.1s-1.8 0.1-2.7 0.1v-0.4c0.6 0 1.3 0 1.5-0.6 0.2-0.5 0.2-1.8 0.2-2.4v-5zm7.3 4.6c-0.3 0.7-0.9 2-0.9 2.7 0 0.8 0.9 0.7 1.4 0.8v0.4c-0.7 0-1.3-0.1-2-0.1-0.6 0-1.2 0.1-1.9 0.1v-0.4c1-0.1 1.4-0.4 1.7-1.3 0.5-1.1 1-2.3 1.5-3.4l2.7-7h0.6l3.6 9.1c0.2 0.5 0.6 1.6 0.9 2 0.4 0.5 0.9 0.6 1.5 0.7v0.4c-0.8 0-1.7-0.1-2.5-0.1-0.9 0-1.7 0.1-2.6 0.1v-0.4c0.5 0 1.4 0 1.4-0.7 0-0.4-0.2-1-0.4-1.4l-0.7-1.8h-4.4l0.1 0.3zm4.4-1l-2-5-2 5h4z"/>
<text font-size="12px" font-family="&apos;MyriadPro-Regular&apos;" transform="translate(526 841.97)">http://dev.vogue.in/content/jacqueline-fernandez-star-born-vogue-india-official/</text>
</svg>
